<?xml version="1.0" standalone="no"?>
<!DOCTYPE svg PUBLIC "-//W3C//DTD SVG 20010904//EN"
 "http://www.w3.org/TR/2001/REC-SVG-20010904/DTD/svg10.dtd">
<svg version="1.0" xmlns="http://www.w3.org/2000/svg"
 width="640.000000pt" height="1280.000000pt" viewBox="0 0 640.000000 1280.000000"
 preserveAspectRatio="xMidYMid meet">
<g transform="translate(0.000000,1280.000000) scale(0.100000,-0.100000)"
fill="#fff" stroke="none">
<path d="M2870 12786 c-78 -18 -112 -38 -163 -98 -82 -97 -92 -124 -95 -279
-2 -91 2 -166 12 -225 28 -162 39 -404 40 -849 1 -866 -40 -1187 -205 -1600
-70 -176 -105 -250 -164 -345 -48 -79 -211 -354 -347 -588 -114 -196 -239
-515 -277 -712 -32 -159 -33 -298 -40 -3760 -4 -1922 -5 -3571 -3 -3665 l6
-170 85 -57 c106 -70 274 -154 406 -203 55 -20 123 -47 150 -61 107 -51 492
-135 760 -165 162 -18 371 -3 673 47 523 86 937 305 1011 533 7 20 16 154 21
301 25 704 41 6605 20 6925 -19 280 -47 403 -142 630 -82 193 -197 415 -342
659 -75 125 -158 271 -185 324 -149 298 -241 630 -286 1034 -14 128 -29 258
-34 288 -16 103 -13 -116 4 -268 8 -75 16 -177 17 -227 l3 -90 -345 -3 c-190
-1 -446 2 -569 7 -201 8 -226 11 -238 27 -14 19 -12 56 7 154 5 25 14 142 20
260 12 213 24 279 52 281 7 0 237 1 511 0 371 0 502 -3 513 -12 13 -10 14 71
8 617 -6 518 -5 641 7 699 7 39 14 115 13 170 0 171 -48 286 -159 380 l-58 50
-316 2 c-228 1 -331 -2 -371 -11z m759 -612 c48 -6 64 -12 74 -28 8 -15 12
-93 12 -258 0 -198 -2 -240 -15 -252 -13 -12 -38 -12 -155 -5 -77 5 -302 8
-500 8 l-360 -1 -7 204 c-3 111 -9 224 -12 250 -6 56 6 70 73 79 61 8 811 11
890 3z m-818 -601 c12 -15 14 -66 9 -320 -4 -268 -7 -304 -22 -319 -16 -17
-18 -17 -37 0 -33 30 -36 76 -23 417 5 150 11 211 21 223 17 21 34 20 52 -1z
m170 -235 c45 -36 47 -47 15 -77 -22 -21 -24 -31 -28 -166 -5 -146 -17 -191
-42 -165 -17 17 -15 440 2 440 7 0 31 -14 53 -32z m-96 -199 c0 -180 -6 -222
-28 -200 -8 8 -12 56 -11 160 1 164 9 224 27 218 9 -3 12 -52 12 -178z m1265
-2999 c54 -29 37 -170 -20 -170 -10 0 -23 13 -30 31 -15 36 -30 22 -30 -28 0
-49 -20 -84 -44 -81 -23 3 -34 48 -35 146 -1 61 11 89 42 102 30 12 94 12 117
0z m-197 -86 c14 -4 17 -17 17 -72 0 -37 -3 -84 -7 -105 -5 -31 -9 -37 -27
-35 -19 3 -38 29 -50 71 -5 14 -10 16 -24 8 -28 -15 -42 5 -42 59 0 81 35 101
133 74z m-2102 -1114 c139 -41 446 -79 824 -101 256 -15 1169 -5 1403 15 206
18 472 60 549 87 31 10 64 19 74 19 44 0 44 22 47 -1584 l3 -1519 -33 -34
c-120 -123 -373 -242 -658 -308 -274 -64 -399 -75 -833 -75 -259 0 -355 4
-490 20 -93 11 -178 22 -190 25 -12 3 -62 12 -112 20 -216 35 -283 54 -440
130 -125 60 -216 117 -292 182 l-53 45 0 1567 c0 862 3 1570 6 1574 3 3 27 -3
52 -14 25 -11 90 -33 143 -49z"/>
</g>
</svg>
